<svg xmlns="http://www.w3.org/2000/svg" width="512" height="512" viewBox="0 0 512 512">
  <defs>
    <linearGradient id="bg" x1="0" y1="0" x2="1" y2="1">
      <stop offset="0" stop-color="#7c9cff"/>
      <stop offset="1" stop-color="#56e1c0"/>
    </linearGradient>
  </defs>
  <rect width="512" height="512" fill="url(#bg)"/>
  <path d="M120.00 322.00 L121.70 321.80 L123.40 321.19 L125.10 320.18 L126.80 318.77 L128.50 316.98 L130.20 314.81 L131.90 312.27 L133.60 309.40 L135.30 306.19 L137.00 302.67 L138.70 298.86 L140.40 294.79 L142.10 290.48 L143.80 285.96 L145.50 281.26 L147.20 276.40 L148.90 271.41 L150.60 266.32 L152.30 261.18 L154.00 256.00 L155.70 250.82 L157.40 245.68 L159.10 240.59 L160.80 235.60 L162.50 230.74 L164.20 226.04 L165.90 221.52 L167.60 217.21 L169.30 213.14 L171.00 209.33 L172.70 205.81 L174.40 202.60 L176.10 199.73 L177.80 197.19 L179.50 195.02 L181.20 193.23 L182.90 191.82 L184.60 190.81 L186.30 190.20 L188.00 190.00 L189.70 190.20 L191.40 190.81 L193.10 191.82 L194.80 193.23 L196.50 195.02 L198.20 197.19 L199.90 199.73 L201.60 202.60 L203.30 205.81 L205.00 209.33 L206.70 213.14 L208.40 217.21 L210.10 221.52 L211.80 226.04 L213.50 230.74 L215.20 235.60 L216.90 240.59 L218.60 245.68 L220.30 250.82 L222.00 256.00 L223.70 261.18 L225.40 266.32 L227.10 271.41 L228.80 276.40 L230.50 281.26 L232.20 285.96 L233.90 290.48 L235.60 294.79 L237.30 298.86 L239.00 302.67 L240.70 306.19 L242.40 309.40 L244.10 312.27 L245.80 314.81 L247.50 316.98 L249.20 318.77 L250.90 320.18 L252.60 321.19 L254.30 321.80 L256.00 322.00 L257.70 321.80 L259.40 321.19 L261.10 320.18 L262.80 318.77 L264.50 316.98 L266.20 314.81 L267.90 312.27 L269.60 309.40 L271.30 306.19 L273.00 302.67 L274.70 298.86 L276.40 294.79 L278.10 290.48 L279.80 285.96 L281.50 281.26 L283.20 276.40 L284.90 271.41 L286.60 266.32 L288.30 261.18 L290.00 256.00 L291.70 250.82 L293.40 245.68 L295.10 240.59 L296.80 235.60 L298.50 230.74 L300.20 226.04 L301.90 221.52 L303.60 217.21 L305.30 213.14 L307.00 209.33 L308.70 205.81 L310.40 202.60 L312.10 199.73 L313.80 197.19 L315.50 195.02 L317.20 193.23 L318.90 191.82 L320.60 190.81 L322.30 190.20 L324.00 190.00 L325.70 190.20 L327.40 190.81 L329.10 191.82 L330.80 193.23 L332.50 195.02 L334.20 197.19 L335.90 199.73 L337.60 202.60 L339.30 205.81 L341.00 209.33 L342.70 213.14 L344.40 217.21 L346.10 221.52 L347.80 226.04 L349.50 230.74 L351.20 235.60 L352.90 240.59 L354.60 245.68 L356.30 250.82 L358.00 256.00 L359.70 261.18 L361.40 266.32 L363.10 271.41 L364.80 276.40 L366.50 281.26 L368.20 285.96 L369.90 290.48 L371.60 294.79 L373.30 298.86 L375.00 302.67 L376.70 306.19 L378.40 309.40 L380.10 312.27 L381.80 314.81 L383.50 316.98 L385.20 318.77 L386.90 320.18 L388.60 321.19 L390.30 321.80 L392.00 322.00" fill="none" stroke="#ffffff" stroke-opacity="0.4" stroke-width="26" stroke-linecap="round" stroke-linejoin="round"/>
  <path d="M120.00 256.00 L121.70 261.18 L123.40 266.32 L125.10 271.41 L126.80 276.40 L128.50 281.26 L130.20 285.96 L131.90 290.48 L133.60 294.79 L135.30 298.86 L137.00 302.67 L138.70 306.19 L140.40 309.40 L142.10 312.27 L143.80 314.81 L145.50 316.98 L147.20 318.77 L148.90 320.18 L150.60 321.19 L152.30 321.80 L154.00 322.00 L155.70 321.80 L157.40 321.19 L159.10 320.18 L160.80 318.77 L162.50 316.98 L164.20 314.81 L165.90 312.27 L167.60 309.40 L169.30 306.19 L171.00 302.67 L172.70 298.86 L174.40 294.79 L176.10 290.48 L177.80 285.96 L179.50 281.26 L181.20 276.40 L182.90 271.41 L184.60 266.32 L186.30 261.18 L188.00 256.00 L189.70 250.82 L191.40 245.68 L193.10 240.59 L194.80 235.60 L196.50 230.74 L198.20 226.04 L199.90 221.52 L201.60 217.21 L203.30 213.14 L205.00 209.33 L206.70 205.81 L208.40 202.60 L210.10 199.73 L211.80 197.19 L213.50 195.02 L215.20 193.23 L216.90 191.82 L218.60 190.81 L220.30 190.20 L222.00 190.00 L223.70 190.20 L225.40 190.81 L227.10 191.82 L228.80 193.23 L230.50 195.02 L232.20 197.19 L233.90 199.73 L235.60 202.60 L237.30 205.81 L239.00 209.33 L240.70 213.14 L242.40 217.21 L244.10 221.52 L245.80 226.04 L247.50 230.74 L249.20 235.60 L250.90 240.59 L252.60 245.68 L254.30 250.82 L256.00 256.00 L257.70 261.18 L259.40 266.32 L261.10 271.41 L262.80 276.40 L264.50 281.26 L266.20 285.96 L267.90 290.48 L269.60 294.79 L271.30 298.86 L273.00 302.67 L274.70 306.19 L276.40 309.40 L278.10 312.27 L279.80 314.81 L281.50 316.98 L283.20 318.77 L284.90 320.18 L286.60 321.19 L288.30 321.80 L290.00 322.00 L291.70 321.80 L293.40 321.19 L295.10 320.18 L296.80 318.77 L298.50 316.98 L300.20 314.81 L301.90 312.27 L303.60 309.40 L305.30 306.19 L307.00 302.67 L308.70 298.86 L310.40 294.79 L312.10 290.48 L313.80 285.96 L315.50 281.26 L317.20 276.40 L318.90 271.41 L320.60 266.32 L322.30 261.18 L324.00 256.00 L325.70 250.82 L327.40 245.68 L329.10 240.59 L330.80 235.60 L332.50 230.74 L334.20 226.04 L335.90 221.52 L337.60 217.21 L339.30 213.14 L341.00 209.33 L342.70 205.81 L344.40 202.60 L346.10 199.73 L347.80 197.19 L349.50 195.02 L351.20 193.23 L352.90 191.82 L354.60 190.81 L356.30 190.20 L358.00 190.00 L359.70 190.20 L361.40 190.81 L363.10 191.82 L364.80 193.23 L366.50 195.02 L368.20 197.19 L369.90 199.73 L371.60 202.60 L373.30 205.81 L375.00 209.33 L376.70 213.14 L378.40 217.21 L380.10 221.52 L381.80 226.04 L383.50 230.74 L385.20 235.60 L386.90 240.59 L388.60 245.68 L390.30 250.82 L392.00 256.00" fill="none" stroke="#0b1020" stroke-width="26" stroke-linecap="round" stroke-linejoin="round"/>
</svg>
